<?xml version="1.0" encoding="utf-8" ?>
<svg baseProfile="full" height="100%" version="1.1" width="100%" xmlns="http://www.w3.org/2000/svg" xmlns:ev="http://www.w3.org/2001/xml-events" xmlns:xlink="http://www.w3.org/1999/xlink"><defs /><g id="lines" stroke="black"><line x1="0cm" x2="1cm" y1="29.96904024767802cm" y2="10.773993808049536cm" /><line x1="1cm" x2="2cm" y1="10.773993808049536cm" y2="29.102167182662537cm" /><line x1="2cm" x2="3cm" y1="29.102167182662537cm" y2="11.764705882352942cm" /><line x1="3cm" x2="4cm" y1="11.764705882352942cm" y2="0.9287925696594427cm" /><line x1="4cm" x2="5cm" y1="0.9287925696594427cm" y2="23.065015479876163cm" /><line x1="5cm" x2="6cm" y1="23.065015479876163cm" y2="27.027863777089784cm" /><line x1="6cm" x2="7cm" y1="27.027863777089784cm" y2="1.671826625386997cm" /><line x1="7cm" x2="8cm" y1="1.671826625386997cm" y2="17.120743034055728cm" /><line x1="8cm" x2="9cm" y1="17.120743034055728cm" y2="10.371517027863778cm" /><line x1="9cm" x2="10cm" y1="10.371517027863778cm" y2="4.7368421052631575cm" /><line x1="10cm" x2="11cm" y1="4.7368421052631575cm" y2="3.219814241486068cm" /><line x1="11cm" x2="12cm" y1="3.219814241486068cm" y2="2.1052631578947367cm" /><line x1="12cm" x2="13cm" y1="2.1052631578947367cm" y2="9.56656346749226cm" /><line x1="13cm" x2="14cm" y1="9.56656346749226cm" y2="24.148606811145513cm" /><line x1="14cm" x2="15cm" y1="24.148606811145513cm" y2="16.656346749226007cm" /><line x1="15cm" x2="16cm" y1="16.656346749226007cm" y2="24.396284829721363cm" /><line x1="16cm" x2="17cm" y1="24.396284829721363cm" y2="10.464396284829721cm" /><line x1="17cm" x2="18cm" y1="10.464396284829721cm" y2="23.993808049535605cm" /><line x1="18cm" x2="19cm" y1="23.993808049535605cm" y2="25.88235294117647cm" /><line x1="19cm" x2="20cm" y1="25.88235294117647cm" y2="6.74922600619195cm" /><line x1="20cm" x2="21cm" y1="6.74922600619195cm" y2="28.173374613003094cm" /><line x1="21cm" x2="22cm" y1="28.173374613003094cm" y2="8.452012383900929cm" /><line x1="22cm" x2="23cm" y1="8.452012383900929cm" y2="11.455108359133128cm" /><line x1="23cm" x2="24cm" y1="11.455108359133128cm" y2="30.0cm" /><line x1="24cm" x2="25cm" y1="30.0cm" y2="27.647058823529413cm" /><line x1="25cm" x2="26cm" y1="27.647058823529413cm" y2="13.095975232198143cm" /><line x1="26cm" x2="27cm" y1="13.095975232198143cm" y2="4.427244582043343cm" /><line x1="27cm" x2="28cm" y1="4.427244582043343cm" y2="17.61609907120743cm" /><line x1="28cm" x2="29cm" y1="17.61609907120743cm" y2="10.340557275541796cm" /></g></svg>