<?xml version="1.0" encoding="utf-8" ?>
<svg baseProfile="full" height="30cm" version="1.1" width="30cm" xmlns="http://www.w3.org/2000/svg" xmlns:ev="http://www.w3.org/2001/xml-events" xmlns:xlink="http://www.w3.org/1999/xlink"><defs /><g id="lines" stroke="#aa1111"><line x1="0cm" x2="1cm" y1="10.588235294117647cm" y2="8.823529411764707cm" /><line x1="1cm" x2="2cm" y1="8.823529411764707cm" y2="11.176470588235295cm" /><line x1="2cm" x2="3cm" y1="11.176470588235295cm" y2="6.470588235294118cm" /><line x1="3cm" x2="4cm" y1="6.470588235294118cm" y2="15.882352941176471cm" /><line x1="4cm" x2="5cm" y1="15.882352941176471cm" y2="7.647058823529412cm" /><line x1="5cm" x2="6cm" y1="7.647058823529412cm" y2="14.117647058823529cm" /><line x1="6cm" x2="7cm" y1="14.117647058823529cm" y2="12.352941176470589cm" /><line x1="7cm" x2="8cm" y1="12.352941176470589cm" y2="5.882352941176471cm" /><line x1="8cm" x2="9cm" y1="5.882352941176471cm" y2="16.47058823529412cm" /><line x1="9cm" x2="10cm" y1="16.47058823529412cm" y2="4.705882352941177cm" /><line x1="10cm" x2="11cm" y1="4.705882352941177cm" y2="10.588235294117647cm" /><line x1="11cm" x2="12cm" y1="10.588235294117647cm" y2="17.647058823529413cm" /><line x1="12cm" x2="13cm" y1="17.647058823529413cm" y2="18.235294117647058cm" /><line x1="13cm" x2="14cm" y1="18.235294117647058cm" y2="2.3529411764705883cm" /><line x1="14cm" x2="15cm" y1="2.3529411764705883cm" y2="1.7647058823529411cm" /><line x1="15cm" x2="16cm" y1="1.7647058823529411cm" y2="1.7647058823529411cm" /><line x1="16cm" x2="17cm" y1="1.7647058823529411cm" y2="1.1764705882352942cm" /><line x1="17cm" x2="18cm" y1="1.1764705882352942cm" y2="9.411764705882353cm" /><line x1="18cm" x2="19cm" y1="9.411764705882353cm" y2="12.941176470588236cm" /><line x1="19cm" x2="20cm" y1="12.941176470588236cm" y2="14.705882352941178cm" /><line x1="20cm" x2="21cm" y1="14.705882352941178cm" y2="1.7647058823529411cm" /><line x1="21cm" x2="22cm" y1="1.7647058823529411cm" y2="0.5882352941176471cm" /><line x1="22cm" x2="23cm" y1="0.5882352941176471cm" y2="1.1764705882352942cm" /><line x1="23cm" x2="24cm" y1="1.1764705882352942cm" y2="8.23529411764706cm" /><line x1="24cm" x2="25cm" y1="8.23529411764706cm" y2="18.235294117647058cm" /><line x1="25cm" x2="26cm" y1="18.235294117647058cm" y2="7.647058823529412cm" /><line x1="26cm" x2="27cm" y1="7.647058823529412cm" y2="12.352941176470589cm" /><line x1="27cm" x2="28cm" y1="12.352941176470589cm" y2="9.411764705882353cm" /><line x1="28cm" x2="29cm" y1="9.411764705882353cm" y2="3.5294117647058822cm" /></g><g id="lines" stroke="#11cc11"><line x1="0cm" x2="1cm" y1="14.294117647058824cm" y2="11.911764705882355cm" /><line x1="1cm" x2="2cm" y1="11.911764705882355cm" y2="15.08823529411765cm" /><line x1="2cm" x2="3cm" y1="15.08823529411765cm" y2="8.73529411764706cm" /><line x1="3cm" x2="4cm" y1="8.73529411764706cm" y2="21.441176470588236cm" /><line x1="4cm" x2="5cm" y1="21.441176470588236cm" y2="10.323529411764707cm" /><line x1="5cm" x2="6cm" y1="10.323529411764707cm" y2="19.058823529411764cm" /><line x1="6cm" x2="7cm" y1="19.058823529411764cm" y2="16.676470588235297cm" /><line x1="7cm" x2="8cm" y1="16.676470588235297cm" y2="7.941176470588236cm" /><line x1="8cm" x2="9cm" y1="7.941176470588236cm" y2="22.23529411764706cm" /><line x1="9cm" x2="10cm" y1="22.23529411764706cm" y2="6.352941176470589cm" /><line x1="10cm" x2="11cm" y1="6.352941176470589cm" y2="14.294117647058824cm" /><line x1="11cm" x2="12cm" y1="14.294117647058824cm" y2="23.82352941176471cm" /><line x1="12cm" x2="13cm" y1="23.82352941176471cm" y2="24.61764705882353cm" /><line x1="13cm" x2="14cm" y1="24.61764705882353cm" y2="3.1764705882352944cm" /><line x1="14cm" x2="15cm" y1="3.1764705882352944cm" y2="2.3823529411764706cm" /><line x1="15cm" x2="16cm" y1="2.3823529411764706cm" y2="2.3823529411764706cm" /><line x1="16cm" x2="17cm" y1="2.3823529411764706cm" y2="1.5882352941176472cm" /><line x1="17cm" x2="18cm" y1="1.5882352941176472cm" y2="12.705882352941178cm" /><line x1="18cm" x2="19cm" y1="12.705882352941178cm" y2="17.47058823529412cm" /><line x1="19cm" x2="20cm" y1="17.47058823529412cm" y2="19.85294117647059cm" /><line x1="20cm" x2="21cm" y1="19.85294117647059cm" y2="2.3823529411764706cm" /><line x1="21cm" x2="22cm" y1="2.3823529411764706cm" y2="0.7941176470588236cm" /><line x1="22cm" x2="23cm" y1="0.7941176470588236cm" y2="1.5882352941176472cm" /><line x1="23cm" x2="24cm" y1="1.5882352941176472cm" y2="11.11764705882353cm" /><line x1="24cm" x2="25cm" y1="11.11764705882353cm" y2="24.61764705882353cm" /><line x1="25cm" x2="26cm" y1="24.61764705882353cm" y2="10.323529411764707cm" /><line x1="26cm" x2="27cm" y1="10.323529411764707cm" y2="16.676470588235297cm" /><line x1="27cm" x2="28cm" y1="16.676470588235297cm" y2="12.705882352941178cm" /><line x1="28cm" x2="29cm" y1="12.705882352941178cm" y2="4.764705882352941cm" /></g></svg>